<svg width="131" height="18" viewBox="0 0 131 18" fill="none" xmlns="http://www.w3.org/2000/svg">
<path d="M9.08 11.432H5V17H0.2V2H10.04L9.44 5.84H5V7.856H9.08V11.432ZM15.6847 12.92V13.76C16.1647 13.808 16.6447 13.832 17.1247 13.832C18.6127 13.832 20.1167 13.592 21.6367 13.112L22.2127 16.64C20.4207 17.12 18.6447 17.36 16.8847 17.36C14.6447 17.36 13.0207 16.84 12.0127 15.8C11.0207 14.744 10.5247 13.144 10.5247 11C10.5247 8.856 11.0207 7.264 12.0127 6.224C13.0207 5.168 14.6367 4.64 16.8607 4.64C19.1007 4.64 20.6447 4.944 21.4927 5.552C22.3407 6.16 22.7647 7.296 22.7647 8.96C22.7647 10.368 22.2527 11.384 21.2287 12.008C20.2207 12.616 18.3727 12.92 15.6847 12.92ZM15.6847 9.152V10.136H16.6687C17.2447 10.136 17.6607 10.08 17.9167 9.968C18.1887 9.84 18.3247 9.56 18.3247 9.128V8.144H17.3407C16.7647 8.144 16.3407 8.208 16.0687 8.336C15.8127 8.448 15.6847 8.72 15.6847 9.152ZM29.255 12.92V13.76C29.735 13.808 30.215 13.832 30.695 13.832C32.183 13.832 33.687 13.592 35.207 13.112L35.783 16.64C33.991 17.12 32.215 17.36 30.455 17.36C28.215 17.36 26.591 16.84 25.583 15.8C24.591 14.744 24.095 13.144 24.095 11C24.095 8.856 24.591 7.264 25.583 6.224C26.591 5.168 28.207 4.64 30.431 4.64C32.671 4.64 34.215 4.944 35.063 5.552C35.911 6.16 36.335 7.296 36.335 8.96C36.335 10.368 35.823 11.384 34.799 12.008C33.791 12.616 31.943 12.92 29.255 12.92ZM29.255 9.152V10.136H30.239C30.815 10.136 31.231 10.08 31.487 9.968C31.759 9.84 31.895 9.56 31.895 9.128V8.144H30.911C30.335 8.144 29.911 8.208 29.639 8.336C29.383 8.448 29.255 8.72 29.255 9.152ZM50.0253 17H47.6253L46.5933 15.992C45.8893 16.904 44.6333 17.36 42.8253 17.36C41.8493 17.36 41.0093 17.176 40.3053 16.808C39.6013 16.44 39.0653 15.936 38.6973 15.296C38.0093 14.096 37.6653 12.664 37.6653 11C37.6653 8.968 38.1133 7.432 39.0093 6.392C39.3453 5.992 39.8093 5.664 40.4013 5.408C40.9933 5.136 41.6813 5 42.4653 5H45.2253V1.4L50.0253 1.04V17ZM42.8253 9.152V13.856H43.5693C44.1133 13.856 44.5133 13.808 44.7693 13.712C45.0413 13.6 45.1933 13.36 45.2253 12.992V8.144H44.4813C43.9053 8.144 43.4813 8.208 43.2093 8.336C42.9533 8.448 42.8253 8.72 42.8253 9.152ZM52.4188 16.4V1.4L57.2188 1.04V5.024C57.8268 4.768 58.6188 4.64 59.5948 4.64C60.5868 4.64 61.4348 4.824 62.1388 5.192C62.8428 5.56 63.3788 6.064 63.7468 6.704C64.4348 7.904 64.7787 9.336 64.7787 11C64.7787 13.256 64.2587 14.88 63.2188 15.872C62.1788 16.864 60.6028 17.36 58.4908 17.36C56.3788 17.36 54.3548 17.04 52.4188 16.4ZM57.2188 9.032V13.856H57.9628C58.5388 13.856 58.9548 13.8 59.2108 13.688C59.4828 13.56 59.6188 13.28 59.6188 12.848V8.144H58.8748C58.5228 8.144 58.2428 8.16 58.0348 8.192C57.8268 8.224 57.6428 8.312 57.4828 8.456C57.3228 8.584 57.2348 8.776 57.2188 9.032ZM72.3802 4.64C76.2202 4.64 78.1402 5.96 78.1402 8.6V17H75.7402L74.3722 15.632C73.9082 16.176 73.2762 16.6 72.4762 16.904C71.6762 17.208 70.9162 17.36 70.1962 17.36C69.4922 17.36 68.9242 17.304 68.4922 17.192C68.0602 17.08 67.6362 16.888 67.2202 16.616C66.3082 16.04 65.8522 14.968 65.8522 13.4C65.8522 10.52 68.0282 9.08 72.3802 9.08H73.3402V8.216C72.8282 8.184 72.4042 8.168 72.0682 8.168C70.2602 8.168 68.7082 8.384 67.4122 8.816L66.8362 5.384C68.4362 4.888 70.2842 4.64 72.3802 4.64ZM70.7002 12.872V13.856H71.6842C72.3882 13.856 72.8362 13.776 73.0282 13.616C73.2362 13.456 73.3402 13.248 73.3402 12.992V11.864H72.3562C71.7802 11.864 71.3562 11.928 71.0842 12.056C70.8282 12.168 70.7002 12.44 70.7002 12.872ZM89.1174 13.4L89.4054 16.856C88.5734 17.192 87.5014 17.36 86.1894 17.36C83.9494 17.36 82.3254 16.84 81.3174 15.8C80.3254 14.744 79.8294 13.144 79.8294 11C79.8294 8.856 80.3254 7.264 81.3174 6.224C82.3254 5.168 83.9494 4.64 86.1894 4.64C87.5814 4.64 88.6534 4.808 89.4054 5.144L88.8294 8.408C87.9814 8.232 87.3094 8.144 86.8134 8.144C85.5974 8.144 84.9894 8.568 84.9894 9.416V13.712C85.4534 13.808 86.0454 13.856 86.7654 13.856C87.5014 13.856 88.2854 13.704 89.1174 13.4ZM98.141 17L96.293 12.248H96.125V17H91.325V1.4L96.125 1.04V8.96H96.293L98.021 5H103.205L100.421 10.712L103.325 17H98.141ZM104.803 16.592C104.451 16.224 104.275 15.568 104.275 14.624C104.275 13.68 104.451 13.016 104.803 12.632C105.155 12.248 105.843 12.056 106.867 12.056C107.907 12.056 108.603 12.248 108.955 12.632C109.307 13.016 109.483 13.68 109.483 14.624C109.483 15.568 109.307 16.224 108.955 16.592C108.603 16.96 107.907 17.144 106.867 17.144C105.843 17.144 105.155 16.96 104.803 16.592ZM111.153 17V5.6L115.953 5V17H111.153ZM111.417 4.232C111.065 3.96 110.889 3.464 110.889 2.744C110.889 2.024 111.065 1.52 111.417 1.232C111.785 0.944 112.497 0.8 113.553 0.8C114.625 0.8 115.337 0.944 115.689 1.232C116.057 1.52 116.241 2.024 116.241 2.744C116.241 3.464 116.057 3.96 115.689 4.232C115.337 4.504 114.625 4.64 113.553 4.64C112.497 4.64 111.785 4.504 111.417 4.232ZM119.356 15.8C118.364 14.744 117.868 13.144 117.868 11C117.868 8.856 118.364 7.264 119.356 6.224C120.364 5.168 121.988 4.64 124.228 4.64C126.468 4.64 128.084 5.168 129.076 6.224C130.084 7.264 130.588 8.856 130.588 11C130.588 13.144 130.084 14.744 129.076 15.8C128.084 16.84 126.468 17.36 124.228 17.36C121.988 17.36 120.364 16.84 119.356 15.8ZM123.028 9.152V13.856H123.772C124.348 13.856 124.764 13.8 125.02 13.688C125.292 13.56 125.428 13.28 125.428 12.848V8.144H124.684C124.108 8.144 123.684 8.208 123.412 8.336C123.156 8.448 123.028 8.72 123.028 9.152Z" fill="#407BFF"/>
</svg>
