<svg width="298" height="83" viewBox="0 0 298 83" fill="none" xmlns="http://www.w3.org/2000/svg">
<rect x="276" y="57" width="14" height="14" fill="#FFD769"/>
<g clip-path="url(#clip0_171_27)">
<path d="M21.6319 20.0704L25.5386 29.4396L20.0329 37.9733L30.1556 37.155L36.5674 45.028L38.9157 35.1481L48.3819 31.4775L39.7116 26.1935L39.1521 16.0566L31.4446 22.6695L21.6319 20.0704Z" fill="#FFD769"/>
<path d="M39.8452 10.947L30.5797 18.8972L18.7782 15.7692C18.4553 15.6833 18.1129 15.7067 17.8047 15.8356C17.0307 16.1582 16.6632 17.05 16.9826 17.8275L21.6833 29.0953L15.0641 39.3541C14.881 39.6364 14.7991 39.9691 14.8251 40.3012C14.8581 40.7041 15.0498 41.0774 15.3579 41.3391C15.666 41.6007 16.0654 41.7294 16.4683 41.6968L28.6369 40.712L36.3479 50.1794C36.5271 50.3999 36.7644 50.5658 37.033 50.6583C37.3016 50.7508 37.5908 50.7662 37.8677 50.7028C38.1446 50.6393 38.3982 50.4995 38.5997 50.2992C38.8013 50.099 38.9426 49.8462 39.0078 49.5697L41.8303 37.6912L53.2159 33.2828C53.5281 33.1637 53.7928 32.9399 53.9656 32.6549C54.4023 31.9372 54.1767 31.0015 53.4589 30.5648L43.0326 24.2099L42.3568 12.0202C42.3375 11.6877 42.2112 11.3691 41.9915 11.1143C41.4484 10.4701 40.4859 10.4008 39.8452 10.947ZM39.711 26.1935L48.3813 31.4775L38.915 35.1481L36.5667 45.028L30.1549 37.155L20.0322 37.9733L25.538 29.4396L21.6312 20.0704L31.4439 22.6695L39.1514 16.0565L39.711 26.1935Z" fill="#407BFF"/>
</g>
<path d="M3.33 45.04H28.35V52.465H13.275V57.775H26.235V64.885H13.275V76H3.33V45.04ZM43.4616 51.7C47.8116 51.7 51.1266 52.72 53.4066 54.76C55.7166 56.8 56.8716 59.92 56.8716 64.12V65.65H39.0516C39.0516 67.36 39.4266 68.65 40.1766 69.52C40.9566 70.39 42.1716 70.825 43.8216 70.825C45.3216 70.825 46.4166 70.51 47.1066 69.88C47.8266 69.25 48.1866 68.41 48.1866 67.36H56.8716C56.8716 70.24 55.7766 72.49 53.5866 74.11C51.3966 75.73 48.2016 76.54 44.0016 76.54C39.5916 76.54 36.1716 75.52 33.7416 73.48C31.3116 71.41 30.0966 68.29 30.0966 64.12C30.0966 60.04 31.2816 56.95 33.6516 54.85C36.0216 52.75 39.2916 51.7 43.4616 51.7ZM43.8216 57.415C41.0016 57.415 39.4266 58.75 39.0966 61.42H47.8266C47.8266 60.19 47.4666 59.215 46.7466 58.495C46.0566 57.775 45.0816 57.415 43.8216 57.415ZM73.4762 51.7C77.8262 51.7 81.1412 52.72 83.4212 54.76C85.7312 56.8 86.8862 59.92 86.8862 64.12V65.65H69.0662C69.0662 67.36 69.4412 68.65 70.1912 69.52C70.9712 70.39 72.1862 70.825 73.8362 70.825C75.3362 70.825 76.4312 70.51 77.1212 69.88C77.8412 69.25 78.2012 68.41 78.2012 67.36H86.8862C86.8862 70.24 85.7912 72.49 83.6012 74.11C81.4112 75.73 78.2162 76.54 74.0162 76.54C69.6062 76.54 66.1862 75.52 63.7562 73.48C61.3262 71.41 60.1112 68.29 60.1112 64.12C60.1112 60.04 61.2962 56.95 63.6662 54.85C66.0362 52.75 69.3062 51.7 73.4762 51.7ZM73.8362 57.415C71.0162 57.415 69.4412 58.75 69.1112 61.42H77.8412C77.8412 60.19 77.4812 59.215 76.7612 58.495C76.0712 57.775 75.0962 57.415 73.8362 57.415ZM108.486 76L107.721 72.625C105.981 75.235 103.461 76.54 100.161 76.54C96.9509 76.54 94.4759 75.49 92.7359 73.39C90.9959 71.29 90.1259 68.185 90.1259 64.075C90.1259 59.995 90.9959 56.92 92.7359 54.85C94.4759 52.75 96.9509 51.7 100.161 51.7C102.891 51.7 105.111 52.615 106.821 54.445V43.375H115.776V76H108.486ZM102.951 58.315C100.371 58.315 99.0809 59.86 99.0809 62.95V65.335C99.0809 68.395 100.371 69.925 102.951 69.925C104.271 69.925 105.261 69.46 105.921 68.53C106.581 67.6 106.911 66.385 106.911 64.885V63.4C106.911 61.9 106.581 60.685 105.921 59.755C105.261 58.795 104.271 58.315 102.951 58.315ZM130.221 54.445C131.931 52.615 134.151 51.7 136.881 51.7C140.091 51.7 142.566 52.75 144.306 54.85C146.046 56.92 146.916 59.995 146.916 64.075C146.916 68.185 146.046 71.29 144.306 73.39C142.566 75.49 140.091 76.54 136.881 76.54C133.581 76.54 131.061 75.235 129.321 72.625L128.556 76H121.266V43.375H130.221V54.445ZM134.091 58.315C132.771 58.315 131.781 58.795 131.121 59.755C130.461 60.685 130.131 61.9 130.131 63.4V64.885C130.131 66.385 130.461 67.6 131.121 68.53C131.781 69.46 132.771 69.925 134.091 69.925C136.671 69.925 137.961 68.395 137.961 65.335V62.95C137.961 59.86 136.671 58.315 134.091 58.315ZM162.98 51.7C166.61 51.7 169.565 52.315 171.845 53.545C174.125 54.745 175.265 56.71 175.265 59.44V68.71C175.265 69.22 175.385 69.64 175.625 69.97C175.865 70.3 176.225 70.465 176.705 70.465H178.325V75.64C178.235 75.7 177.995 75.805 177.605 75.955C177.245 76.075 176.72 76.195 176.03 76.315C175.34 76.465 174.545 76.54 173.645 76.54C171.905 76.54 170.465 76.285 169.325 75.775C168.215 75.235 167.45 74.5 167.03 73.57C165.89 74.47 164.615 75.19 163.205 75.73C161.795 76.27 160.145 76.54 158.255 76.54C152.675 76.54 149.885 74.32 149.885 69.88C149.885 67.57 150.5 65.815 151.73 64.615C152.99 63.385 154.79 62.545 157.13 62.095C159.47 61.645 162.53 61.42 166.31 61.42V60.25C166.31 59.32 165.98 58.615 165.32 58.135C164.69 57.655 163.865 57.415 162.845 57.415C161.915 57.415 161.105 57.58 160.415 57.91C159.755 58.24 159.425 58.765 159.425 59.485V59.665H150.605C150.575 59.515 150.56 59.305 150.56 59.035C150.56 56.785 151.625 55 153.755 53.68C155.915 52.36 158.99 51.7 162.98 51.7ZM166.31 65.65C163.76 65.65 161.87 65.935 160.64 66.505C159.44 67.045 158.84 67.78 158.84 68.71C158.84 70.21 159.86 70.96 161.9 70.96C163.07 70.96 164.09 70.645 164.96 70.015C165.86 69.385 166.31 68.605 166.31 67.675V65.65ZM193.535 51.7C197.435 51.7 200.585 52.54 202.985 54.22C205.415 55.87 206.63 58.405 206.63 61.825H197.945C197.945 59.125 196.475 57.775 193.535 57.775C190.595 57.775 189.125 59.47 189.125 62.86V65.425C189.125 68.785 190.655 70.465 193.715 70.465C196.775 70.465 198.305 69.085 198.305 66.325H206.63C206.63 69.775 205.415 72.34 202.985 74.02C200.585 75.7 197.435 76.54 193.535 76.54C189.365 76.54 186.095 75.49 183.725 73.39C181.355 71.29 180.17 68.2 180.17 64.12C180.17 60.04 181.355 56.95 183.725 54.85C186.095 52.75 189.365 51.7 193.535 51.7ZM227.077 52.24H237.517L228.742 61.825L237.742 76H227.572L222.577 67.855L219.472 70.87V76H210.517V43.33H219.472V61.33L227.077 52.24ZM240.577 76V67.045H250.117V76H240.577ZM255.832 49.45V43.375H264.787V49.45H255.832ZM255.832 76V52.24H264.787V76H255.832ZM282.788 51.7C286.958 51.7 290.228 52.765 292.598 54.895C294.998 56.995 296.198 60.07 296.198 64.12C296.198 68.17 294.998 71.26 292.598 73.39C290.228 75.49 286.958 76.54 282.788 76.54C278.618 76.54 275.348 75.49 272.978 73.39C270.608 71.29 269.423 68.2 269.423 64.12C269.423 60.04 270.608 56.95 272.978 54.85C275.348 52.75 278.618 51.7 282.788 51.7ZM282.788 57.775C279.848 57.775 278.378 59.47 278.378 62.86V65.425C278.378 68.785 279.848 70.465 282.788 70.465C285.758 70.465 287.243 68.785 287.243 65.425V62.86C287.243 59.47 285.758 57.775 282.788 57.775Z" fill="#407BFF"/>
<defs>
<clipPath id="clip0_171_27">
<rect width="42.6364" height="42.6364" fill="white" transform="translate(3.06934 32.199) rotate(-48.9)"/>
</clipPath>
</defs>
</svg>
